solid Default
  facet normal -1.000000e+00 -0.000000e+00 -0.000000e+00
    outer loop
      vertex -2.850000e+01 -1.400000e+01 0.000000e+00
      vertex -2.850000e+01 -1.400000e+01 4.000000e+00
      vertex -2.850000e+01 1.400000e+01 0.000000e+00
    endloop
  endfacet
  facet normal -1.000000e+00 0.000000e+00 0.000000e+00
    outer loop
      vertex -2.850000e+01 1.400000e+01 0.000000e+00
      vertex -2.850000e+01 -1.400000e+01 4.000000e+00
      vertex -2.850000e+01 1.400000e+01 4.000000e+00
    endloop
  endfacet
  facet normal 0.000000e+00 -1.000000e+00 0.000000e+00
    outer loop
      vertex -2.850000e+01 -1.400000e+01 4.000000e+00
      vertex -2.850000e+01 -1.400000e+01 0.000000e+00
      vertex 2.850000e+01 -1.400000e+01 0.000000e+00
    endloop
  endfacet
  facet normal 0.000000e+00 -1.000000e+00 0.000000e+00
    outer loop
      vertex 2.850000e+01 -1.400000e+01 4.000000e+00
      vertex -2.850000e+01 -1.400000e+01 4.000000e+00
      vertex 2.850000e+01 -1.400000e+01 0.000000e+00
    endloop
  endfacet
  facet normal 0.000000e+00 0.000000e+00 -1.000000e+00
    outer loop
      vertex -2.150000e+01 1.100000e+01 0.000000e+00
      vertex -2.850000e+01 1.400000e+01 0.000000e+00
      vertex 2.850000e+01 1.400000e+01 0.000000e+00
    endloop
  endfacet
  facet normal 0.000000e+00 0.000000e+00 -1.000000e+00
    outer loop
      vertex -2.850000e+01 -1.400000e+01 0.000000e+00
      vertex -2.850000e+01 1.400000e+01 0.000000e+00
      vertex -2.547080e+01 -4.394660e+00 0.000000e+00
    endloop
  endfacet
  facet normal 0.000000e+00 0.000000e+00 -1.000000e+00
    outer loop
      vertex -2.850000e+01 -1.400000e+01 0.000000e+00
      vertex -2.547080e+01 -4.394660e+00 0.000000e+00
      vertex -2.547080e+01 -5.805340e+00 0.000000e+00
    endloop
  endfacet
  facet normal 0.000000e+00 0.000000e+00 -1.000000e+00
    outer loop
      vertex -2.850000e+01 -1.400000e+01 0.000000e+00
      vertex -2.547080e+01 -5.805340e+00 0.000000e+00
      vertex -2.412920e+01 -6.241270e+00 0.000000e+00
    endloop
  endfacet
  facet normal 0.000000e+00 0.000000e+00 -1.000000e+00
    outer loop
      vertex 2.200000e+01 1.100000e+01 0.000000e+00
      vertex 2.402920e+01 -4.394660e+00 0.000000e+00
      vertex 2.402920e+01 -5.805340e+00 0.000000e+00
    endloop
  endfacet
  facet normal 0.000000e+00 0.000000e+00 -1.000000e+00
    outer loop
      vertex 2.200000e+01 1.100000e+01 0.000000e+00
      vertex 2.402920e+01 -5.805340e+00 0.000000e+00
      vertex 2.200000e+01 -1.100000e+01 0.000000e+00
    endloop
  endfacet
  facet normal 0.000000e+00 0.000000e+00 -1.000000e+00
    outer loop
      vertex -2.547080e+01 -4.394660e+00 0.000000e+00
      vertex -2.850000e+01 1.400000e+01 0.000000e+00
      vertex -2.412920e+01 -3.958730e+00 0.000000e+00
    endloop
  endfacet
  facet normal 0.000000e+00 0.000000e+00 -1.000000e+00
    outer loop
      vertex -2.412920e+01 3.958730e+00 0.000000e+00
      vertex -2.412920e+01 -3.958730e+00 0.000000e+00
      vertex -2.547080e+01 4.394660e+00 0.000000e+00
    endloop
  endfacet
  facet normal 0.000000e+00 0.000000e+00 -1.000000e+00
    outer loop
      vertex -2.547080e+01 4.394660e+00 0.000000e+00
      vertex -2.850000e+01 1.400000e+01 0.000000e+00
      vertex -2.547080e+01 5.805340e+00 0.000000e+00
    endloop
  endfacet
  facet normal 0.000000e+00 0.000000e+00 -1.000000e+00
    outer loop
      vertex -2.330000e+01 -5.100000e+00 0.000000e+00
      vertex -2.412920e+01 -3.958730e+00 0.000000e+00
      vertex -2.412920e+01 3.958730e+00 0.000000e+00
    endloop
  endfacet
  facet normal 0.000000e+00 0.000000e+00 -1.000000e+00
    outer loop
      vertex -2.412920e+01 -3.958730e+00 0.000000e+00
      vertex -2.850000e+01 1.400000e+01 0.000000e+00
      vertex -2.547080e+01 4.394660e+00 0.000000e+00
    endloop
  endfacet
  facet normal -0.000000e+00 -0.000000e+00 -1.000000e+00
    outer loop
      vertex -2.412920e+01 6.241270e+00 0.000000e+00
      vertex -2.850000e+01 1.400000e+01 0.000000e+00
      vertex -2.330000e+01 5.100000e+00 0.000000e+00
    endloop
  endfacet
  facet normal 0.000000e+00 0.000000e+00 -1.000000e+00
    outer loop
      vertex -2.150000e+01 -1.100000e+01 0.000000e+00
      vertex -2.412920e+01 -6.241270e+00 0.000000e+00
      vertex -2.330000e+01 -5.100000e+00 0.000000e+00
    endloop
  endfacet
  facet normal 0.000000e+00 0.000000e+00 -1.000000e+00
    outer loop
      vertex -2.547080e+01 5.805340e+00 0.000000e+00
      vertex -2.850000e+01 1.400000e+01 0.000000e+00
      vertex -2.412920e+01 6.241270e+00 0.000000e+00
    endloop
  endfacet
  facet normal 0.000000e+00 0.000000e+00 -1.000000e+00
    outer loop
      vertex 2.200000e+01 1.100000e+01 0.000000e+00
      vertex -2.150000e+01 1.100000e+01 0.000000e+00
      vertex 2.850000e+01 1.400000e+01 0.000000e+00
    endloop
  endfacet
  facet normal 0.000000e+00 0.000000e+00 -1.000000e+00
    outer loop
      vertex -2.850000e+01 -1.400000e+01 0.000000e+00
      vertex -2.412920e+01 -6.241270e+00 0.000000e+00
      vertex -2.150000e+01 -1.100000e+01 0.000000e+00
    endloop
  endfacet
  facet normal 0.000000e+00 0.000000e+00 -1.000000e+00
    outer loop
      vertex -2.850000e+01 -1.400000e+01 0.000000e+00
      vertex -2.150000e+01 -1.100000e+01 0.000000e+00
      vertex 2.850000e+01 -1.400000e+01 0.000000e+00
    endloop
  endfacet
  facet normal 0.000000e+00 0.000000e+00 -1.000000e+00
    outer loop
      vertex 2.402920e+01 -4.394660e+00 0.000000e+00
      vertex 2.200000e+01 1.100000e+01 0.000000e+00
      vertex 2.537080e+01 -3.958730e+00 0.000000e+00
    endloop
  endfacet
  facet normal 0.000000e+00 0.000000e+00 -1.000000e+00
    outer loop
      vertex 2.402920e+01 5.805340e+00 0.000000e+00
      vertex 2.200000e+01 1.100000e+01 0.000000e+00
      vertex 2.850000e+01 1.400000e+01 0.000000e+00
    endloop
  endfacet
  facet normal 0.000000e+00 0.000000e+00 -1.000000e+00
    outer loop
      vertex 2.537080e+01 -6.241270e+00 0.000000e+00
      vertex 2.850000e+01 -1.400000e+01 0.000000e+00
      vertex 2.402920e+01 -5.805340e+00 0.000000e+00
    endloop
  endfacet
  facet normal -0.000000e+00 -0.000000e+00 -1.000000e+00
    outer loop
      vertex 2.537080e+01 -3.958730e+00 0.000000e+00
      vertex 2.200000e+01 1.100000e+01 0.000000e+00
      vertex 2.620000e+01 -5.100000e+00 0.000000e+00
    endloop
  endfacet
  facet normal 0.000000e+00 0.000000e+00 -1.000000e+00
    outer loop
      vertex 2.620000e+01 -5.100000e+00 0.000000e+00
      vertex 2.850000e+01 -1.400000e+01 0.000000e+00
      vertex 2.537080e+01 -6.241270e+00 0.000000e+00
    endloop
  endfacet
  facet normal 0.000000e+00 0.000000e+00 -1.000000e+00
    outer loop
      vertex 2.537080e+01 3.958730e+00 0.000000e+00
      vertex 2.620000e+01 -5.100000e+00 0.000000e+00
      vertex 2.402920e+01 4.394660e+00 0.000000e+00
    endloop
  endfacet
  facet normal 0.000000e+00 0.000000e+00 -1.000000e+00
    outer loop
      vertex 2.850000e+01 -1.400000e+01 0.000000e+00
      vertex 2.620000e+01 -5.100000e+00 0.000000e+00
      vertex 2.850000e+01 1.400000e+01 0.000000e+00
    endloop
  endfacet
  facet normal 0.000000e+00 0.000000e+00 -1.000000e+00
    outer loop
      vertex 2.402920e+01 4.394660e+00 0.000000e+00
      vertex 2.200000e+01 1.100000e+01 0.000000e+00
      vertex 2.402920e+01 5.805340e+00 0.000000e+00
    endloop
  endfacet
  facet normal 0.000000e+00 0.000000e+00 -1.000000e+00
    outer loop
      vertex 2.537080e+01 6.241270e+00 0.000000e+00
      vertex 2.402920e+01 5.805340e+00 0.000000e+00
      vertex 2.850000e+01 1.400000e+01 0.000000e+00
    endloop
  endfacet
  facet normal 0.000000e+00 0.000000e+00 -1.000000e+00
    outer loop
      vertex 2.620000e+01 -5.100000e+00 0.000000e+00
      vertex 2.200000e+01 1.100000e+01 0.000000e+00
      vertex 2.402920e+01 4.394660e+00 0.000000e+00
    endloop
  endfacet
  facet normal 0.000000e+00 0.000000e+00 -1.000000e+00
    outer loop
      vertex 2.537080e+01 6.241270e+00 0.000000e+00
      vertex 2.850000e+01 1.400000e+01 0.000000e+00
      vertex 2.620000e+01 5.100000e+00 0.000000e+00
    endloop
  endfacet
  facet normal 0.000000e+00 0.000000e+00 -1.000000e+00
    outer loop
      vertex 2.620000e+01 -5.100000e+00 0.000000e+00
      vertex 2.537080e+01 3.958730e+00 0.000000e+00
      vertex 2.620000e+01 5.100000e+00 0.000000e+00
    endloop
  endfacet
  facet normal 0.000000e+00 0.000000e+00 -1.000000e+00
    outer loop
      vertex 2.620000e+01 -5.100000e+00 0.000000e+00
      vertex 2.620000e+01 5.100000e+00 0.000000e+00
      vertex 2.850000e+01 1.400000e+01 0.000000e+00
    endloop
  endfacet
  facet normal 0.000000e+00 0.000000e+00 -1.000000e+00
    outer loop
      vertex 2.402920e+01 -5.805340e+00 0.000000e+00
      vertex 2.850000e+01 -1.400000e+01 0.000000e+00
      vertex 2.200000e+01 -1.100000e+01 0.000000e+00
    endloop
  endfacet
  facet normal 0.000000e+00 0.000000e+00 -1.000000e+00
    outer loop
      vertex -2.150000e+01 -1.100000e+01 0.000000e+00
      vertex -2.330000e+01 -5.100000e+00 0.000000e+00
      vertex -2.412920e+01 3.958730e+00 0.000000e+00
    endloop
  endfacet
  facet normal 0.000000e+00 0.000000e+00 -1.000000e+00
    outer loop
      vertex -2.150000e+01 -1.100000e+01 0.000000e+00
      vertex -2.412920e+01 3.958730e+00 0.000000e+00
      vertex -2.330000e+01 5.100000e+00 0.000000e+00
    endloop
  endfacet
  facet normal 0.000000e+00 0.000000e+00 -1.000000e+00
    outer loop
      vertex -2.330000e+01 5.100000e+00 0.000000e+00
      vertex -2.850000e+01 1.400000e+01 0.000000e+00
      vertex -2.150000e+01 1.100000e+01 0.000000e+00
    endloop
  endfacet
  facet normal 0.000000e+00 0.000000e+00 -1.000000e+00
    outer loop
      vertex -2.150000e+01 -1.100000e+01 0.000000e+00
      vertex -2.330000e+01 5.100000e+00 0.000000e+00
      vertex -2.150000e+01 1.100000e+01 0.000000e+00
    endloop
  endfacet
  facet normal 0.000000e+00 0.000000e+00 -1.000000e+00
    outer loop
      vertex 2.200000e+01 -1.100000e+01 0.000000e+00
      vertex 2.850000e+01 -1.400000e+01 0.000000e+00
      vertex -2.150000e+01 -1.100000e+01 0.000000e+00
    endloop
  endfacet
  facet normal 0.000000e+00 1.000000e+00 0.000000e+00
    outer loop
      vertex -2.850000e+01 1.400000e+01 0.000000e+00
      vertex -2.850000e+01 1.400000e+01 4.000000e+00
      vertex 2.850000e+01 1.400000e+01 0.000000e+00
    endloop
  endfacet
  facet normal 0.000000e+00 1.000000e+00 0.000000e+00
    outer loop
      vertex 2.850000e+01 1.400000e+01 0.000000e+00
      vertex -2.850000e+01 1.400000e+01 4.000000e+00
      vertex 2.850000e+01 1.400000e+01 4.000000e+00
    endloop
  endfacet
  facet normal 0.000000e+00 0.000000e+00 1.000000e+00
    outer loop
      vertex -2.150000e+01 -1.100000e+01 4.000000e+00
      vertex -2.850000e+01 -1.400000e+01 4.000000e+00
      vertex 2.850000e+01 -1.400000e+01 4.000000e+00
    endloop
  endfacet
  facet normal 0.000000e+00 0.000000e+00 1.000000e+00
    outer loop
      vertex -2.850000e+01 1.400000e+01 4.000000e+00
      vertex -2.850000e+01 -1.400000e+01 4.000000e+00
      vertex -2.547080e+01 -5.805340e+00 4.000000e+00
    endloop
  endfacet
  facet normal 0.000000e+00 0.000000e+00 1.000000e+00
    outer loop
      vertex -2.850000e+01 1.400000e+01 4.000000e+00
      vertex -2.547080e+01 -5.805340e+00 4.000000e+00
      vertex -2.547080e+01 -4.394660e+00 4.000000e+00
    endloop
  endfacet
  facet normal 0.000000e+00 0.000000e+00 1.000000e+00
    outer loop
      vertex -2.330000e+01 5.100000e+00 4.000000e+00
      vertex -2.150000e+01 1.100000e+01 4.000000e+00
      vertex -2.850000e+01 1.400000e+01 4.000000e+00
    endloop
  endfacet
  facet normal 0.000000e+00 0.000000e+00 1.000000e+00
    outer loop
      vertex -2.850000e+01 1.400000e+01 4.000000e+00
      vertex -2.547080e+01 -4.394660e+00 4.000000e+00
      vertex -2.412920e+01 -3.958730e+00 4.000000e+00
    endloop
  endfacet
  facet normal 0.000000e+00 0.000000e+00 1.000000e+00
    outer loop
      vertex -2.547080e+01 -5.805340e+00 4.000000e+00
      vertex -2.850000e+01 -1.400000e+01 4.000000e+00
      vertex -2.412920e+01 -6.241270e+00 4.000000e+00
    endloop
  endfacet
  facet normal 0.000000e+00 0.000000e+00 1.000000e+00
    outer loop
      vertex -2.150000e+01 -1.100000e+01 4.000000e+00
      vertex -2.150000e+01 1.100000e+01 4.000000e+00
      vertex -2.330000e+01 5.100000e+00 4.000000e+00
    endloop
  endfacet
  facet normal 0.000000e+00 0.000000e+00 1.000000e+00
    outer loop
      vertex -2.850000e+01 1.400000e+01 4.000000e+00
      vertex -2.412920e+01 -3.958730e+00 4.000000e+00
      vertex -2.547080e+01 4.394660e+00 4.000000e+00
    endloop
  endfacet
  facet normal 0.000000e+00 0.000000e+00 1.000000e+00
    outer loop
      vertex -2.330000e+01 -5.100000e+00 4.000000e+00
      vertex -2.547080e+01 4.394660e+00 4.000000e+00
      vertex -2.412920e+01 -3.958730e+00 4.000000e+00
    endloop
  endfacet
  facet normal 0.000000e+00 0.000000e+00 1.000000e+00
    outer loop
      vertex -2.850000e+01 1.400000e+01 4.000000e+00
      vertex -2.547080e+01 4.394660e+00 4.000000e+00
      vertex -2.547080e+01 5.805340e+00 4.000000e+00
    endloop
  endfacet
  facet normal 0.000000e+00 0.000000e+00 1.000000e+00
    outer loop
      vertex -2.850000e+01 1.400000e+01 4.000000e+00
      vertex -2.547080e+01 5.805340e+00 4.000000e+00
      vertex -2.412920e+01 6.241270e+00 4.000000e+00
    endloop
  endfacet
  facet normal 0.000000e+00 0.000000e+00 1.000000e+00
    outer loop
      vertex -2.150000e+01 -1.100000e+01 4.000000e+00
      vertex -2.330000e+01 -5.100000e+00 4.000000e+00
      vertex -2.412920e+01 -6.241270e+00 4.000000e+00
    endloop
  endfacet
  facet normal 0.000000e+00 0.000000e+00 1.000000e+00
    outer loop
      vertex -2.412920e+01 -6.241270e+00 4.000000e+00
      vertex -2.850000e+01 -1.400000e+01 4.000000e+00
      vertex -2.150000e+01 -1.100000e+01 4.000000e+00
    endloop
  endfacet
  facet normal 0.000000e+00 0.000000e+00 1.000000e+00
    outer loop
      vertex 2.537080e+01 -6.241270e+00 4.000000e+00
      vertex 2.402920e+01 -5.805340e+00 4.000000e+00
      vertex 2.850000e+01 -1.400000e+01 4.000000e+00
    endloop
  endfacet
  facet normal 0.000000e+00 0.000000e+00 1.000000e+00
    outer loop
      vertex 2.850000e+01 1.400000e+01 4.000000e+00
      vertex -2.850000e+01 1.400000e+01 4.000000e+00
      vertex -2.150000e+01 1.100000e+01 4.000000e+00
    endloop
  endfacet
  facet normal 0.000000e+00 0.000000e+00 1.000000e+00
    outer loop
      vertex 2.850000e+01 1.400000e+01 4.000000e+00
      vertex -2.150000e+01 1.100000e+01 4.000000e+00
      vertex 2.200000e+01 1.100000e+01 4.000000e+00
    endloop
  endfacet
  facet normal 0.000000e+00 0.000000e+00 1.000000e+00
    outer loop
      vertex 2.402920e+01 -5.805340e+00 4.000000e+00
      vertex 2.200000e+01 -1.100000e+01 4.000000e+00
      vertex 2.850000e+01 -1.400000e+01 4.000000e+00
    endloop
  endfacet
  facet normal 0.000000e+00 0.000000e+00 1.000000e+00
    outer loop
      vertex 2.200000e+01 1.100000e+01 4.000000e+00
      vertex 2.200000e+01 -1.100000e+01 4.000000e+00
      vertex 2.402920e+01 -5.805340e+00 4.000000e+00
    endloop
  endfacet
  facet normal 0.000000e+00 0.000000e+00 1.000000e+00
    outer loop
      vertex 2.402920e+01 5.805340e+00 4.000000e+00
      vertex 2.537080e+01 6.241270e+00 4.000000e+00
      vertex 2.850000e+01 1.400000e+01 4.000000e+00
    endloop
  endfacet
  facet normal 0.000000e+00 0.000000e+00 1.000000e+00
    outer loop
      vertex 2.537080e+01 -3.958730e+00 4.000000e+00
      vertex 2.620000e+01 -5.100000e+00 4.000000e+00
      vertex 2.200000e+01 1.100000e+01 4.000000e+00
    endloop
  endfacet
  facet normal 0.000000e+00 0.000000e+00 1.000000e+00
    outer loop
      vertex 2.200000e+01 1.100000e+01 4.000000e+00
      vertex 2.402920e+01 -5.805340e+00 4.000000e+00
      vertex 2.402920e+01 -4.394660e+00 4.000000e+00
    endloop
  endfacet
  facet normal 0.000000e+00 0.000000e+00 1.000000e+00
    outer loop
      vertex 2.620000e+01 -5.100000e+00 4.000000e+00
      vertex 2.537080e+01 -6.241270e+00 4.000000e+00
      vertex 2.850000e+01 -1.400000e+01 4.000000e+00
    endloop
  endfacet
  facet normal 0.000000e+00 0.000000e+00 1.000000e+00
    outer loop
      vertex 2.200000e+01 1.100000e+01 4.000000e+00
      vertex 2.402920e+01 -4.394660e+00 4.000000e+00
      vertex 2.537080e+01 -3.958730e+00 4.000000e+00
    endloop
  endfacet
  facet normal 0.000000e+00 0.000000e+00 1.000000e+00
    outer loop
      vertex 2.850000e+01 1.400000e+01 4.000000e+00
      vertex 2.620000e+01 -5.100000e+00 4.000000e+00
      vertex 2.850000e+01 -1.400000e+01 4.000000e+00
    endloop
  endfacet
  facet normal 0.000000e+00 0.000000e+00 1.000000e+00
    outer loop
      vertex 2.402920e+01 4.394660e+00 4.000000e+00
      vertex 2.200000e+01 1.100000e+01 4.000000e+00
      vertex 2.620000e+01 -5.100000e+00 4.000000e+00
    endloop
  endfacet
  facet normal 0.000000e+00 0.000000e+00 1.000000e+00
    outer loop
      vertex 2.537080e+01 3.958730e+00 4.000000e+00
      vertex 2.402920e+01 4.394660e+00 4.000000e+00
      vertex 2.620000e+01 -5.100000e+00 4.000000e+00
    endloop
  endfacet
  facet normal 0.000000e+00 0.000000e+00 1.000000e+00
    outer loop
      vertex 2.402920e+01 5.805340e+00 4.000000e+00
      vertex 2.200000e+01 1.100000e+01 4.000000e+00
      vertex 2.402920e+01 4.394660e+00 4.000000e+00
    endloop
  endfacet
  facet normal 0.000000e+00 0.000000e+00 1.000000e+00
    outer loop
      vertex 2.620000e+01 5.100000e+00 4.000000e+00
      vertex 2.537080e+01 3.958730e+00 4.000000e+00
      vertex 2.620000e+01 -5.100000e+00 4.000000e+00
    endloop
  endfacet
  facet normal 0.000000e+00 0.000000e+00 1.000000e+00
    outer loop
      vertex 2.850000e+01 1.400000e+01 4.000000e+00
      vertex 2.200000e+01 1.100000e+01 4.000000e+00
      vertex 2.402920e+01 5.805340e+00 4.000000e+00
    endloop
  endfacet
  facet normal 0.000000e+00 0.000000e+00 1.000000e+00
    outer loop
      vertex 2.850000e+01 1.400000e+01 4.000000e+00
      vertex 2.620000e+01 5.100000e+00 4.000000e+00
      vertex 2.620000e+01 -5.100000e+00 4.000000e+00
    endloop
  endfacet
  facet normal 0.000000e+00 0.000000e+00 1.000000e+00
    outer loop
      vertex 2.850000e+01 1.400000e+01 4.000000e+00
      vertex 2.537080e+01 6.241270e+00 4.000000e+00
      vertex 2.620000e+01 5.100000e+00 4.000000e+00
    endloop
  endfacet
  facet normal 0.000000e+00 0.000000e+00 1.000000e+00
    outer loop
      vertex -2.330000e+01 5.100000e+00 4.000000e+00
      vertex -2.850000e+01 1.400000e+01 4.000000e+00
      vertex -2.412920e+01 6.241270e+00 4.000000e+00
    endloop
  endfacet
  facet normal 0.000000e+00 0.000000e+00 1.000000e+00
    outer loop
      vertex -2.150000e+01 -1.100000e+01 4.000000e+00
      vertex -2.547080e+01 4.394660e+00 4.000000e+00
      vertex -2.330000e+01 -5.100000e+00 4.000000e+00
    endloop
  endfacet
  facet normal 0.000000e+00 0.000000e+00 1.000000e+00
    outer loop
      vertex -2.150000e+01 -1.100000e+01 4.000000e+00
      vertex -2.412920e+01 3.958730e+00 4.000000e+00
      vertex -2.547080e+01 4.394660e+00 4.000000e+00
    endloop
  endfacet
  facet normal 0.000000e+00 0.000000e+00 1.000000e+00
    outer loop
      vertex -2.150000e+01 -1.100000e+01 4.000000e+00
      vertex -2.330000e+01 5.100000e+00 4.000000e+00
      vertex -2.412920e+01 3.958730e+00 4.000000e+00
    endloop
  endfacet
  facet normal 0.000000e+00 0.000000e+00 1.000000e+00
    outer loop
      vertex 2.200000e+01 -1.100000e+01 4.000000e+00
      vertex -2.150000e+01 -1.100000e+01 4.000000e+00
      vertex 2.850000e+01 -1.400000e+01 4.000000e+00
    endloop
  endfacet
  facet normal 1.000000e+00 0.000000e+00 0.000000e+00
    outer loop
      vertex 2.850000e+01 -1.400000e+01 4.000000e+00
      vertex 2.850000e+01 -1.400000e+01 0.000000e+00
      vertex 2.850000e+01 1.400000e+01 0.000000e+00
    endloop
  endfacet
  facet normal 1.000000e+00 0.000000e+00 0.000000e+00
    outer loop
      vertex 2.850000e+01 1.400000e+01 4.000000e+00
      vertex 2.850000e+01 -1.400000e+01 4.000000e+00
      vertex 2.850000e+01 1.400000e+01 0.000000e+00
    endloop
  endfacet
  facet normal 1.000000e+00 0.000000e+00 0.000000e+00
    outer loop
      vertex -2.547080e+01 -4.394660e+00 0.000000e+00
      vertex -2.547080e+01 -4.394660e+00 4.000000e+00
      vertex -2.547080e+01 -5.805340e+00 4.000000e+00
    endloop
  endfacet
  facet normal 1.000000e+00 0.000000e+00 0.000000e+00
    outer loop
      vertex -2.547080e+01 -5.805340e+00 0.000000e+00
      vertex -2.547080e+01 -4.394660e+00 0.000000e+00
      vertex -2.547080e+01 -5.805340e+00 4.000000e+00
    endloop
  endfacet
  facet normal 3.090172e-01 -9.510565e-01 0.000000e+00
    outer loop
      vertex -2.412920e+01 -3.958730e+00 0.000000e+00
      vertex -2.412920e+01 -3.958730e+00 4.000000e+00
      vertex -2.547080e+01 -4.394660e+00 4.000000e+00
    endloop
  endfacet
  facet normal 3.090172e-01 -9.510565e-01 0.000000e+00
    outer loop
      vertex -2.547080e+01 -4.394660e+00 0.000000e+00
      vertex -2.412920e+01 -3.958730e+00 0.000000e+00
      vertex -2.547080e+01 -4.394660e+00 4.000000e+00
    endloop
  endfacet
  facet normal -8.090171e-01 -5.877851e-01 0.000000e+00
    outer loop
      vertex -2.330000e+01 -5.100000e+00 4.000000e+00
      vertex -2.412920e+01 -3.958730e+00 4.000000e+00
      vertex -2.330000e+01 -5.100000e+00 0.000000e+00
    endloop
  endfacet
  facet normal -8.090171e-01 -5.877851e-01 0.000000e+00
    outer loop
      vertex -2.330000e+01 -5.100000e+00 0.000000e+00
      vertex -2.412920e+01 -3.958730e+00 4.000000e+00
      vertex -2.412920e+01 -3.958730e+00 0.000000e+00
    endloop
  endfacet
  facet normal -8.090171e-01 5.877851e-01 0.000000e+00
    outer loop
      vertex -2.330000e+01 -5.100000e+00 4.000000e+00
      vertex -2.330000e+01 -5.100000e+00 0.000000e+00
      vertex -2.412920e+01 -6.241270e+00 4.000000e+00
    endloop
  endfacet
  facet normal -8.090171e-01 5.877851e-01 0.000000e+00
    outer loop
      vertex -2.412920e+01 -6.241270e+00 4.000000e+00
      vertex -2.330000e+01 -5.100000e+00 0.000000e+00
      vertex -2.412920e+01 -6.241270e+00 0.000000e+00
    endloop
  endfacet
  facet normal 3.090172e-01 9.510565e-01 0.000000e+00
    outer loop
      vertex -2.412920e+01 -6.241270e+00 4.000000e+00
      vertex -2.412920e+01 -6.241270e+00 0.000000e+00
      vertex -2.547080e+01 -5.805340e+00 4.000000e+00
    endloop
  endfacet
  facet normal 3.090172e-01 9.510565e-01 0.000000e+00
    outer loop
      vertex -2.547080e+01 -5.805340e+00 4.000000e+00
      vertex -2.412920e+01 -6.241270e+00 0.000000e+00
      vertex -2.547080e+01 -5.805340e+00 0.000000e+00
    endloop
  endfacet
  facet normal 3.090172e-01 -9.510565e-01 0.000000e+00
    outer loop
      vertex -2.412920e+01 6.241270e+00 0.000000e+00
      vertex -2.412920e+01 6.241270e+00 4.000000e+00
      vertex -2.547080e+01 5.805340e+00 4.000000e+00
    endloop
  endfacet
  facet normal 3.090172e-01 -9.510565e-01 0.000000e+00
    outer loop
      vertex -2.547080e+01 5.805340e+00 0.000000e+00
      vertex -2.412920e+01 6.241270e+00 0.000000e+00
      vertex -2.547080e+01 5.805340e+00 4.000000e+00
    endloop
  endfacet
  facet normal 1.000000e+00 0.000000e+00 0.000000e+00
    outer loop
      vertex -2.547080e+01 5.805340e+00 0.000000e+00
      vertex -2.547080e+01 5.805340e+00 4.000000e+00
      vertex -2.547080e+01 4.394660e+00 4.000000e+00
    endloop
  endfacet
  facet normal 1.000000e+00 0.000000e+00 0.000000e+00
    outer loop
      vertex -2.547080e+01 4.394660e+00 0.000000e+00
      vertex -2.547080e+01 5.805340e+00 0.000000e+00
      vertex -2.547080e+01 4.394660e+00 4.000000e+00
    endloop
  endfacet
  facet normal -8.090171e-01 -5.877851e-01 0.000000e+00
    outer loop
      vertex -2.330000e+01 5.100000e+00 4.000000e+00
      vertex -2.412920e+01 6.241270e+00 4.000000e+00
      vertex -2.330000e+01 5.100000e+00 0.000000e+00
    endloop
  endfacet
  facet normal -8.090171e-01 -5.877851e-01 0.000000e+00
    outer loop
      vertex -2.330000e+01 5.100000e+00 0.000000e+00
      vertex -2.412920e+01 6.241270e+00 4.000000e+00
      vertex -2.412920e+01 6.241270e+00 0.000000e+00
    endloop
  endfacet
  facet normal -8.090171e-01 5.877851e-01 0.000000e+00
    outer loop
      vertex -2.330000e+01 5.100000e+00 4.000000e+00
      vertex -2.330000e+01 5.100000e+00 0.000000e+00
      vertex -2.412920e+01 3.958730e+00 4.000000e+00
    endloop
  endfacet
  facet normal -8.090171e-01 5.877851e-01 0.000000e+00
    outer loop
      vertex -2.412920e+01 3.958730e+00 4.000000e+00
      vertex -2.330000e+01 5.100000e+00 0.000000e+00
      vertex -2.412920e+01 3.958730e+00 0.000000e+00
    endloop
  endfacet
  facet normal 3.090172e-01 9.510565e-01 0.000000e+00
    outer loop
      vertex -2.412920e+01 3.958730e+00 4.000000e+00
      vertex -2.412920e+01 3.958730e+00 0.000000e+00
      vertex -2.547080e+01 4.394660e+00 4.000000e+00
    endloop
  endfacet
  facet normal 3.090172e-01 9.510565e-01 0.000000e+00
    outer loop
      vertex -2.547080e+01 4.394660e+00 4.000000e+00
      vertex -2.412920e+01 3.958730e+00 0.000000e+00
      vertex -2.547080e+01 4.394660e+00 0.000000e+00
    endloop
  endfacet
  facet normal 1.000000e+00 0.000000e+00 0.000000e+00
    outer loop
      vertex -2.150000e+01 -1.100000e+01 4.000000e+00
      vertex -2.150000e+01 -1.100000e+01 0.000000e+00
      vertex -2.150000e+01 1.100000e+01 0.000000e+00
    endloop
  endfacet
  facet normal 1.000000e+00 0.000000e+00 0.000000e+00
    outer loop
      vertex -2.150000e+01 1.100000e+01 4.000000e+00
      vertex -2.150000e+01 -1.100000e+01 4.000000e+00
      vertex -2.150000e+01 1.100000e+01 0.000000e+00
    endloop
  endfacet
  facet normal 0.000000e+00 -1.000000e+00 0.000000e+00
    outer loop
      vertex 2.200000e+01 1.100000e+01 0.000000e+00
      vertex 2.200000e+01 1.100000e+01 4.000000e+00
      vertex -2.150000e+01 1.100000e+01 4.000000e+00
    endloop
  endfacet
  facet normal -0.000000e+00 -1.000000e+00 -0.000000e+00
    outer loop
      vertex -2.150000e+01 1.100000e+01 0.000000e+00
      vertex 2.200000e+01 1.100000e+01 0.000000e+00
      vertex -2.150000e+01 1.100000e+01 4.000000e+00
    endloop
  endfacet
  facet normal -1.000000e+00 0.000000e+00 0.000000e+00
    outer loop
      vertex 2.200000e+01 1.100000e+01 4.000000e+00
      vertex 2.200000e+01 1.100000e+01 0.000000e+00
      vertex 2.200000e+01 -1.100000e+01 4.000000e+00
    endloop
  endfacet
  facet normal -1.000000e+00 0.000000e+00 0.000000e+00
    outer loop
      vertex 2.200000e+01 -1.100000e+01 4.000000e+00
      vertex 2.200000e+01 1.100000e+01 0.000000e+00
      vertex 2.200000e+01 -1.100000e+01 0.000000e+00
    endloop
  endfacet
  facet normal 0.000000e+00 1.000000e+00 0.000000e+00
    outer loop
      vertex 2.200000e+01 -1.100000e+01 4.000000e+00
      vertex 2.200000e+01 -1.100000e+01 0.000000e+00
      vertex -2.150000e+01 -1.100000e+01 4.000000e+00
    endloop
  endfacet
  facet normal 0.000000e+00 1.000000e+00 0.000000e+00
    outer loop
      vertex -2.150000e+01 -1.100000e+01 4.000000e+00
      vertex 2.200000e+01 -1.100000e+01 0.000000e+00
      vertex -2.150000e+01 -1.100000e+01 0.000000e+00
    endloop
  endfacet
  facet normal 3.090172e-01 -9.510565e-01 0.000000e+00
    outer loop
      vertex 2.537080e+01 -3.958730e+00 0.000000e+00
      vertex 2.537080e+01 -3.958730e+00 4.000000e+00
      vertex 2.402920e+01 -4.394660e+00 4.000000e+00
    endloop
  endfacet
  facet normal 3.090172e-01 -9.510565e-01 0.000000e+00
    outer loop
      vertex 2.402920e+01 -4.394660e+00 0.000000e+00
      vertex 2.537080e+01 -3.958730e+00 0.000000e+00
      vertex 2.402920e+01 -4.394660e+00 4.000000e+00
    endloop
  endfacet
  facet normal 1.000000e+00 0.000000e+00 0.000000e+00
    outer loop
      vertex 2.402920e+01 -4.394660e+00 0.000000e+00
      vertex 2.402920e+01 -4.394660e+00 4.000000e+00
      vertex 2.402920e+01 -5.805340e+00 4.000000e+00
    endloop
  endfacet
  facet normal 1.000000e+00 0.000000e+00 0.000000e+00
    outer loop
      vertex 2.402920e+01 -5.805340e+00 0.000000e+00
      vertex 2.402920e+01 -4.394660e+00 0.000000e+00
      vertex 2.402920e+01 -5.805340e+00 4.000000e+00
    endloop
  endfacet
  facet normal -8.090171e-01 -5.877851e-01 0.000000e+00
    outer loop
      vertex 2.620000e+01 -5.100000e+00 4.000000e+00
      vertex 2.537080e+01 -3.958730e+00 4.000000e+00
      vertex 2.620000e+01 -5.100000e+00 0.000000e+00
    endloop
  endfacet
  facet normal -8.090171e-01 -5.877851e-01 0.000000e+00
    outer loop
      vertex 2.620000e+01 -5.100000e+00 0.000000e+00
      vertex 2.537080e+01 -3.958730e+00 4.000000e+00
      vertex 2.537080e+01 -3.958730e+00 0.000000e+00
    endloop
  endfacet
  facet normal -8.090171e-01 5.877851e-01 0.000000e+00
    outer loop
      vertex 2.620000e+01 -5.100000e+00 4.000000e+00
      vertex 2.620000e+01 -5.100000e+00 0.000000e+00
      vertex 2.537080e+01 -6.241270e+00 4.000000e+00
    endloop
  endfacet
  facet normal -8.090171e-01 5.877851e-01 0.000000e+00
    outer loop
      vertex 2.537080e+01 -6.241270e+00 4.000000e+00
      vertex 2.620000e+01 -5.100000e+00 0.000000e+00
      vertex 2.537080e+01 -6.241270e+00 0.000000e+00
    endloop
  endfacet
  facet normal 3.090172e-01 9.510565e-01 0.000000e+00
    outer loop
      vertex 2.537080e+01 -6.241270e+00 4.000000e+00
      vertex 2.537080e+01 -6.241270e+00 0.000000e+00
      vertex 2.402920e+01 -5.805340e+00 4.000000e+00
    endloop
  endfacet
  facet normal 3.090172e-01 9.510565e-01 0.000000e+00
    outer loop
      vertex 2.402920e+01 -5.805340e+00 4.000000e+00
      vertex 2.537080e+01 -6.241270e+00 0.000000e+00
      vertex 2.402920e+01 -5.805340e+00 0.000000e+00
    endloop
  endfacet
  facet normal 3.090172e-01 -9.510565e-01 0.000000e+00
    outer loop
      vertex 2.537080e+01 6.241270e+00 0.000000e+00
      vertex 2.537080e+01 6.241270e+00 4.000000e+00
      vertex 2.402920e+01 5.805340e+00 4.000000e+00
    endloop
  endfacet
  facet normal 3.090172e-01 -9.510565e-01 0.000000e+00
    outer loop
      vertex 2.402920e+01 5.805340e+00 0.000000e+00
      vertex 2.537080e+01 6.241270e+00 0.000000e+00
      vertex 2.402920e+01 5.805340e+00 4.000000e+00
    endloop
  endfacet
  facet normal 1.000000e+00 0.000000e+00 0.000000e+00
    outer loop
      vertex 2.402920e+01 5.805340e+00 0.000000e+00
      vertex 2.402920e+01 5.805340e+00 4.000000e+00
      vertex 2.402920e+01 4.394660e+00 4.000000e+00
    endloop
  endfacet
  facet normal 1.000000e+00 0.000000e+00 0.000000e+00
    outer loop
      vertex 2.402920e+01 4.394660e+00 0.000000e+00
      vertex 2.402920e+01 5.805340e+00 0.000000e+00
      vertex 2.402920e+01 4.394660e+00 4.000000e+00
    endloop
  endfacet
  facet normal -8.090171e-01 -5.877851e-01 0.000000e+00
    outer loop
      vertex 2.620000e+01 5.100000e+00 4.000000e+00
      vertex 2.537080e+01 6.241270e+00 4.000000e+00
      vertex 2.620000e+01 5.100000e+00 0.000000e+00
    endloop
  endfacet
  facet normal -8.090171e-01 -5.877851e-01 0.000000e+00
    outer loop
      vertex 2.620000e+01 5.100000e+00 0.000000e+00
      vertex 2.537080e+01 6.241270e+00 4.000000e+00
      vertex 2.537080e+01 6.241270e+00 0.000000e+00
    endloop
  endfacet
  facet normal -8.090171e-01 5.877851e-01 0.000000e+00
    outer loop
      vertex 2.620000e+01 5.100000e+00 4.000000e+00
      vertex 2.620000e+01 5.100000e+00 0.000000e+00
      vertex 2.537080e+01 3.958730e+00 4.000000e+00
    endloop
  endfacet
  facet normal -8.090171e-01 5.877851e-01 0.000000e+00
    outer loop
      vertex 2.537080e+01 3.958730e+00 4.000000e+00
      vertex 2.620000e+01 5.100000e+00 0.000000e+00
      vertex 2.537080e+01 3.958730e+00 0.000000e+00
    endloop
  endfacet
  facet normal 3.090172e-01 9.510565e-01 0.000000e+00
    outer loop
      vertex 2.537080e+01 3.958730e+00 4.000000e+00
      vertex 2.537080e+01 3.958730e+00 0.000000e+00
      vertex 2.402920e+01 4.394660e+00 4.000000e+00
    endloop
  endfacet
  facet normal 3.090172e-01 9.510565e-01 0.000000e+00
    outer loop
      vertex 2.402920e+01 4.394660e+00 4.000000e+00
      vertex 2.537080e+01 3.958730e+00 0.000000e+00
      vertex 2.402920e+01 4.394660e+00 0.000000e+00
    endloop
  endfacet
endsolid Default
